<svg xmlns="http://www.w3.org/2000/svg" xmlns:xlink="http://www.w3.org/1999/xlink" viewBox="175.87863159179688 112.10540008544922 220.0080108642578 220.00498962402344"><title>WW_Logo.svg</title><desc></desc><metadata id="{d4}1"><title>metadata1</title><desc></desc><rdf:RDF xmlns:rdf="http://www.w3.org/1999/02/22-rdf-syntax-ns#" id="{d4}4"><cc:Work xmlns:cc="http://creativecommons.org/ns#" rdf:about="" id="{d4}8"><dc:format xmlns:dc="http://purl.org/dc/elements/1.1/" id="{d4}12">image/svg+xml</dc:format><dc:type xmlns:dc="http://purl.org/dc/elements/1.1/" rdf:resource="http://purl.org/dc/dcmitype/StillImage" id="{d4}13"/></cc:Work></rdf:RDF></metadata><defs id="{d4}2"><title>defs1</title><desc></desc><clipPath id="{d4}5"><title>clipPath1</title><desc></desc><path d="M 0,360 460,360 460,0 0,0 0,360 z" xmlns:inkscape="http://www.inkscape.org/namespaces/inkscape" inkscape:connector-curvature="0" id="{d4}9"><title>path1</title><desc></desc></path></clipPath></defs><g transform="matrix(1.25,0,0,-1.25,0,450)" id="{d4}3"><title>g1</title><desc></desc><g transform="translate(234.4639,148.6982)" id="{d4}6"><title>g2</title><desc></desc><path d="m 0,0 -2.84,10.217 -1.813,0 -2.788,-10.213 -3.35,10.213 -2.084,0 4.6,-14.16 1.782,0 2.741,10.002 2.789,-10.002 1.782,0 4.582,14.16 -2.085,0 L 0,0 z" xmlns:inkscape="http://www.inkscape.org/namespaces/inkscape" inkscape:connector-curvature="0" id="{d4}10" style="fill:#393536;fill-opacity:1;fill-rule:nonzero;stroke:none"><title>path2</title><desc></desc></path></g><g id="{d4}7"><title>g3</title><desc></desc><g clip-path="url(#{d4}5)" id="{d4}11"><title>g4</title><desc></desc><g transform="translate(225.542,179.1147)" id="{d4}14"><title>g5</title><desc></desc><path d="M 0,0 C 0,1.178 1.455,1.565 2.517,1.849 2.599,1.87 2.677,1.891 2.752,1.912 L 5.536,-1.042 C 4.612,-1.494 4.047,-1.657 2.953,-1.657 2.028,-1.657 0,-1.24 0,0 m 7.104,-2.768 0.817,-0.885 2.982,0 -2.074,2.285 c 0.729,0.795 1.316,1.582 1.793,2.403 L 10.682,1.138 8.859,2.332 8.693,2.091 C 8.271,1.481 7.837,0.85 7.327,0.292 L 3.371,4.603 C 3.09,4.901 2.664,5.354 2.664,5.94 c 0,0.504 0.572,0.829 1.459,0.829 0.981,0 2.244,-0.589 2.834,-0.937 L 7.072,5.765 8.049,7.695 7.953,7.755 C 7.158,8.259 5.604,8.801 4.069,8.801 1.739,8.801 0.291,7.698 0.291,5.922 0.291,4.979 0.727,4.141 1.156,3.634 -0.293,3.366 -2.248,2.254 -2.248,0.072 c 0,-1.936 1.854,-3.995 5.291,-3.995 1.72,0 2.579,0.304 4.061,1.155" xmlns:inkscape="http://www.inkscape.org/namespaces/inkscape" inkscape:connector-curvature="0" id="{d4}45" style="fill:#393536;fill-opacity:1;fill-rule:nonzero;stroke:none"><title>path3</title><desc></desc></path></g><g transform="translate(226.9727,204.3857)" id="{d4}15"><title>g6</title><desc></desc><path d="M 0,0 2.74,10.002 5.529,0 l 1.784,0 4.58,14.16 -2.084,0 L 6.492,3.943 3.652,14.16 1.839,14.16 -0.95,3.947 -4.3,14.16 -6.382,14.16 -1.783,0 0,0 z" xmlns:inkscape="http://www.inkscape.org/namespaces/inkscape" inkscape:connector-curvature="0" id="{d4}46" style="fill:#393536;fill-opacity:1;fill-rule:nonzero;stroke:none"><title>path4</title><desc></desc></path></g><g transform="translate(228.7061,111.1777)" id="{d4}16"><title>g7</title><desc></desc><path d="m 0,0 c -39.225,0 -71.137,31.911 -71.137,71.135 0,39.224 31.912,71.136 71.137,71.136 39.225,0 71.137,-31.912 71.137,-71.136 C 71.137,31.911 39.225,0 0,0 m 0,144.471 c -40.438,0 -73.336,-32.899 -73.336,-73.336 0,-40.437 32.898,-73.334 73.336,-73.334 40.438,0 73.336,32.897 73.336,73.334 0,40.437 -32.898,73.336 -73.336,73.336" xmlns:inkscape="http://www.inkscape.org/namespaces/inkscape" inkscape:connector-curvature="0" id="{d4}47" style="fill:#393536;fill-opacity:1;fill-rule:nonzero;stroke:none"><title>path5</title><desc></desc></path></g><g transform="translate(229.0801,138.6836)" id="{d4}17"><title>g8</title><desc></desc><path d="M 0,0 C -13.525,0 -25.636,6.169 -33.67,15.839 L 1.907,28.81 34.925,17.424 C 26.928,6.849 14.25,0 0,0 M -36.519,67.857 -3.323,56.215 -36.28,44.044 -36.258,41.972 -1.394,29.948 -35.104,17.657 c -5.44,7.295 -8.665,16.334 -8.665,26.113 0,8.894 2.674,17.172 7.25,24.087 M 0,87.537 c 14.17,0 26.782,-6.774 34.787,-17.248 L -0.085,57.411 -35.211,69.73 C -27.232,80.522 -14.422,87.537 0,87.537 M 36.266,19.289 5.188,30.006 38.024,41.978 38.012,44.05 3.172,56.269 36.129,68.44 c 4.815,-7.029 7.64,-15.525 7.64,-24.67 0,-9.062 -2.769,-17.489 -7.503,-24.481 M -0.067,55.073 34.381,42.992 1.887,31.145 -32.629,43.047 -0.067,55.073 z M 45.968,43.77 c 0,25.346 -20.621,45.967 -45.968,45.967 -25.347,0 -45.968,-20.621 -45.968,-45.967 0,-25.348 20.621,-45.969 45.968,-45.969 25.347,0 45.968,20.621 45.968,45.969" xmlns:inkscape="http://www.inkscape.org/namespaces/inkscape" inkscape:connector-curvature="0" id="{d4}48" style="fill:#393536;fill-opacity:1;fill-rule:nonzero;stroke:none"><title>path6</title><desc></desc></path></g><g transform="translate(165.2207,175.6763)" id="{d4}18"><title>g9</title><desc></desc><path d="m 0,0 11.24,3.841 -10e-4,1.71 -7.034,1.84 7.033,1.982 -10e-4,1.695 -11.242,3.636 0,-2.068 7.37,-2.341 -7.367,-2.071 0,-1.755 L 7.363,4.566 0,2.071 0,0 z" xmlns:inkscape="http://www.inkscape.org/namespaces/inkscape" inkscape:connector-curvature="0" id="{d4}49" style="fill:#393536;fill-opacity:1;fill-rule:nonzero;stroke:none"><title>path7</title><desc></desc></path></g><g transform="translate(177.8438,195.0381)" id="{d4}19"><title>g10</title><desc></desc><path d="M 0,0 -11.005,2.369 -11.422,0.428 -0.421,-1.941 0,0 z" xmlns:inkscape="http://www.inkscape.org/namespaces/inkscape" inkscape:connector-curvature="0" id="{d4}50" style="fill:#393536;fill-opacity:1;fill-rule:nonzero;stroke:none"><title>path8</title><desc></desc></path></g><g transform="translate(182.1787,207.3569)" id="{d4}20"><title>g11</title><desc></desc><path d="m 0,0 -1.843,0.741 -2.47,-6.135 -8.586,3.455 L -13.641,-3.78 -3.214,-7.979 0,0 z" xmlns:inkscape="http://www.inkscape.org/namespaces/inkscape" inkscape:connector-curvature="0" id="{d4}51" style="fill:#393536;fill-opacity:1;fill-rule:nonzero;stroke:none"><title>path9</title><desc></desc></path></g><g transform="translate(176.8848,213.9868)" id="{d4}21"><title>g12</title><desc></desc><path d="m 0,0 c 0.777,-0.554 1.825,-0.703 2.676,-0.371 0.781,0.309 1.342,0.808 2.143,1.907 l 1.313,1.789 c 0.35,0.479 0.99,1.038 1.639,1.038 0.24,0 0.458,-0.074 0.67,-0.225 C 9.834,3.144 7.979,0.508 7.898,0.396 6.857,-1.062 5.919,-1.635 4.038,-1.959 l -0.365,-0.063 0.311,-1.96 0.37,0.056 c 2.356,0.363 3.809,1.252 5.181,3.172 1.543,2.167 2.174,5.016 0.102,6.495 C 8.59,6.489 7.041,6.54 5.952,5.863 5.203,5.399 4.656,4.702 4.313,4.22 L 3.394,2.96 C 2.618,1.894 2.411,1.729 2.024,1.536 1.766,1.416 1.406,1.452 1.162,1.627 0.768,1.909 0.64,2.401 0.781,3.09 0.92,3.761 1.28,4.435 1.571,4.843 2.337,5.914 3.15,6.496 4.572,6.99 L 4.907,7.106 4.365,9.007 3.999,8.895 C 2.232,8.35 0.989,7.469 -0.032,6.039 -1.401,4.118 -1.975,1.409 0,0" xmlns:inkscape="http://www.inkscape.org/namespaces/inkscape" inkscape:connector-curvature="0" id="{d4}52" style="fill:#393536;fill-opacity:1;fill-rule:nonzero;stroke:none"><title>path10</title><desc></desc></path></g><g transform="translate(188.7334,228.6699)" id="{d4}22"><title>g13</title><desc></desc><path d="m 0,0 c 0.155,1.038 0.714,1.987 1.573,2.671 0.741,0.591 1.645,0.916 2.545,0.916 1.17,0 2.227,-0.518 2.977,-1.459 C 8.479,0.392 8.161,-2.003 6.356,-3.44 5.611,-4.034 4.688,-4.361 3.759,-4.361 2.579,-4.361 1.528,-3.857 0.8,-2.943 0.127,-2.099 -0.156,-1.054 0,0 m 3.754,-6.36 c 1.371,0 2.725,0.479 3.817,1.349 1.283,1.022 2.107,2.437 2.319,3.982 C 10.104,0.545 9.661,2.117 8.641,3.397 7.529,4.79 5.887,5.589 4.134,5.589 2.774,5.589 1.419,5.105 0.316,4.227 -0.942,3.224 -1.755,1.809 -1.974,0.241 c -0.222,-1.6 0.207,-3.174 1.21,-4.431 1.099,-1.379 2.746,-2.17 4.518,-2.17" xmlns:inkscape="http://www.inkscape.org/namespaces/inkscape" inkscape:connector-curvature="0" id="{d4}53" style="fill:#393536;fill-opacity:1;fill-rule:nonzero;stroke:none"><title>path11</title><desc></desc></path></g><g transform="translate(206.8711,230.5938)" id="{d4}23"><title>g14</title><desc></desc><path d="M 0,0 -2.858,7.308 5.853,2.289 7.533,2.946 3.44,13.417 1.578,12.686 4.472,5.285 -4.272,10.398 -5.943,9.747 -1.851,-0.723 0,0 z" xmlns:inkscape="http://www.inkscape.org/namespaces/inkscape" inkscape:connector-curvature="0" id="{d4}54" style="fill:#393536;fill-opacity:1;fill-rule:nonzero;stroke:none"><title>path12</title><desc></desc></path></g><g transform="translate(229.2305,237.0688)" id="{d4}24"><title>g15</title><desc></desc><path d="m 0,0 -0.11,0.001 c -0.776,0.015 -2.468,0.399 -2.45,1.44 0.007,0.378 0.377,0.917 2.065,1.38 L 1.758,0.399 C 1.255,0.122 0.706,0 0,0 m -3.068,-1.161 c 0.778,-0.503 1.828,-0.802 2.88,-0.822 L 0.05,-1.985 c 1.336,0 2.06,0.256 3.1,0.861 L 3.823,-1.861 6.579,-1.912 4.711,0.15 C 5.186,0.662 5.855,1.568 6.026,1.928 L 6.164,2.218 4.554,3.313 4.357,2.942 C 4.229,2.699 3.689,2.019 3.347,1.635 l -3.43,3.707 C -0.301,5.566 -0.4,5.77 -0.396,5.981 -0.392,6.277 0.208,6.412 0.833,6.412 l 0.005,0 C 1.676,6.396 2.574,6.025 2.917,5.778 L 3.27,5.525 4.194,7.316 3.946,7.507 C 3.341,7.973 2.083,8.303 0.817,8.328 L 0.7,8.329 C -1.202,8.329 -2.354,7.47 -2.383,6.03 -2.394,5.393 -2.125,4.818 -1.878,4.427 -3.578,3.879 -4.52,2.845 -4.546,1.478 c -0.02,-1.089 0.49,-2.001 1.478,-2.639" xmlns:inkscape="http://www.inkscape.org/namespaces/inkscape" inkscape:connector-curvature="0" id="{d4}55" style="fill:#393536;fill-opacity:1;fill-rule:nonzero;stroke:none"><title>path13</title><desc></desc></path></g><g transform="translate(252.8682,237.1978)" id="{d4}25"><title>g16</title><desc></desc><path d="M 0,0 -1.052,-7.232 0.497,-7.919 8.393,0.87 6.504,1.711 1.367,-4.068 2.471,3.504 0.869,4.218 -3.866,-1.736 -3.15,6.005 -5.042,6.847 -6.106,-4.982 -4.544,-5.679 0,0 z" xmlns:inkscape="http://www.inkscape.org/namespaces/inkscape" inkscape:connector-curvature="0" id="{d4}56" style="fill:#393536;fill-opacity:1;fill-rule:nonzero;stroke:none"><title>path14</title><desc></desc></path></g><g transform="translate(260.3682,224.644)" id="{d4}26"><title>g17</title><desc></desc><path d="M 0,0 6.634,9.091 5.028,10.261 -1.604,1.17 0,0 z" xmlns:inkscape="http://www.inkscape.org/namespaces/inkscape" inkscape:connector-curvature="0" id="{d4}57" style="fill:#393536;fill-opacity:1;fill-rule:nonzero;stroke:none"><title>path15</title><desc></desc></path></g><g transform="translate(269.876,215.6992)" id="{d4}27"><title>g18</title><desc></desc><path d="M 0,0 1.423,1.385 -3.192,6.125 3.436,12.583 2.05,14.004 -6.002,6.16 0,0 z" xmlns:inkscape="http://www.inkscape.org/namespaces/inkscape" inkscape:connector-curvature="0" id="{d4}58" style="fill:#393536;fill-opacity:1;fill-rule:nonzero;stroke:none"><title>path16</title><desc></desc></path></g><g transform="translate(276.0361,205.9399)" id="{d4}28"><title>g19</title><desc></desc><path d="M 0,0 1.691,1.042 -1.784,6.673 6.092,11.533 5.05,13.223 -4.516,7.319 0,0 z" xmlns:inkscape="http://www.inkscape.org/namespaces/inkscape" inkscape:connector-curvature="0" id="{d4}59" style="fill:#393536;fill-opacity:1;fill-rule:nonzero;stroke:none"><title>path17</title><desc></desc></path></g><g transform="translate(278.6113,198.7925)" id="{d4}29"><title>g20</title><desc></desc><path d="M 0,0 4.809,1.623 12.222,-1.06 11.401,1.368 6.354,3.163 9.282,7.65 8.465,10.07 4.175,3.504 -0.634,1.881 0,0 z" xmlns:inkscape="http://www.inkscape.org/namespaces/inkscape" inkscape:connector-curvature="0" id="{d4}60" style="fill:#393536;fill-opacity:1;fill-rule:nonzero;stroke:none"><title>path18</title><desc></desc></path></g><g transform="translate(290.4268,193.4526)" id="{d4}30"><title>g21</title><desc></desc><path d="m 0,0 c -0.729,-0.111 -1.185,-0.643 -1.138,-1.345 l -0.008,-0.001 c -0.303,0 -0.637,0.269 -0.824,0.491 -0.196,0.245 -0.392,0.331 -0.768,0.273 -0.433,-0.066 -0.674,-0.373 -0.616,-0.781 l 0.386,-0.594 C -2.484,-2.405 -1.721,-3 -0.673,-3 c 0.137,0 0.278,0.009 0.424,0.031 0.444,0.067 0.876,0.278 1.182,0.578 0.371,0.363 0.535,0.829 0.463,1.311 C 1.297,-0.422 0.65,0.101 0,0" xmlns:inkscape="http://www.inkscape.org/namespaces/inkscape" inkscape:connector-curvature="0" id="{d4}61" style="fill:#393536;fill-opacity:1;fill-rule:nonzero;stroke:none"><title>path19</title><desc></desc></path></g><g transform="translate(289.0957,185.7153)" id="{d4}31"><title>g22</title><desc></desc><path d="m 0,0 -0.102,0.001 c -0.932,0 -1.826,-0.448 -2.333,-1.171 -0.48,-0.69 -0.671,-1.416 -0.732,-2.773 l -0.105,-2.216 c -0.035,-0.725 -0.374,-1.953 -1.475,-1.953 l -0.001,0 c -0.6,0.02 -1.029,0.41 -1.313,1.193 -0.321,0.884 -0.313,1.926 -0.302,2.224 0.062,1.794 0.528,2.789 1.916,4.096 l 0.269,0.254 -1.343,1.462 -0.275,-0.251 c -1.767,-1.603 -2.484,-3.147 -2.566,-5.507 -0.044,-1.261 0.185,-2.518 0.628,-3.45 0.606,-1.277 1.601,-1.975 2.876,-2.02 l 0.108,-10e-4 0.001,0 c 1.283,0 2.501,0.778 3.028,1.936 0.283,0.615 0.429,1.34 0.46,2.276 l 0.067,1.557 c 0.06,1.325 0.137,1.563 0.357,1.946 C -0.693,-2.16 -0.398,-2 -0.071,-2 l 0.002,0 C 0.213,-2.009 0.45,-2.122 0.657,-2.343 1.187,-2.91 1.396,-4.069 1.367,-4.906 1.32,-6.223 0.964,-7.157 0.053,-8.353 l -0.216,-0.282 1.505,-1.283 0.242,0.295 c 1.17,1.429 1.719,2.849 1.781,4.607 C 3.444,-2.658 2.426,-0.083 0,0" xmlns:inkscape="http://www.inkscape.org/namespaces/inkscape" inkscape:connector-curvature="0" id="{d4}62" style="fill:#393536;fill-opacity:1;fill-rule:nonzero;stroke:none"><title>path20</title><desc></desc></path></g><g transform="translate(180.7314,159.0977)" id="{d4}32"><title>g23</title><desc></desc><path d="M 0,0 -5.165,-2.22 -1.749,4.07 -2.342,5.451 -10.13,2.104 -9.479,0.593 -4.331,2.807 -7.726,-3.485 -7.123,-4.887 0.663,-1.54 0,0 z" xmlns:inkscape="http://www.inkscape.org/namespaces/inkscape" inkscape:connector-curvature="0" id="{d4}63" style="fill:#393536;fill-opacity:1;fill-rule:nonzero;stroke:none"><title>path21</title><desc></desc></path></g><g transform="translate(179.9434,150.5029)" id="{d4}33"><title>g24</title><desc></desc><path d="m 0,0 1.533,-2.243 1.366,0.933 -1.533,2.244 1.31,0.893 3.045,-4.458 1.385,0.944 -3.987,5.833 -6.997,-4.78 4.1,-6.001 1.375,0.94 -3.16,4.626 L 0,0 z" xmlns:inkscape="http://www.inkscape.org/namespaces/inkscape" inkscape:connector-curvature="0" id="{d4}64" style="fill:#393536;fill-opacity:1;fill-rule:nonzero;stroke:none"><title>path22</title><desc></desc></path></g><g transform="translate(188.7109,147.0273)" id="{d4}34"><title>g25</title><desc></desc><path d="M 0,0 -6.308,-5.661 -5.209,-6.883 1.099,-1.222 0,0 z" xmlns:inkscape="http://www.inkscape.org/namespaces/inkscape" inkscape:connector-curvature="0" id="{d4}65" style="fill:#393536;fill-opacity:1;fill-rule:nonzero;stroke:none"><title>path23</title><desc></desc></path></g><g transform="translate(191.3057,137.125)" id="{d4}35"><title>g26</title><desc></desc><path d="M 0,0 1.933,-1.638 1.515,-2.133 C 1.398,-2.27 1.211,-2.339 0.958,-2.339 c -0.452,0 -0.922,0.213 -1.055,0.278 -0.242,0.12 -0.484,0.282 -0.719,0.48 -0.638,0.54 -1.052,1.236 -1.167,1.961 -0.121,0.763 0.094,1.496 0.624,2.12 0.532,0.628 1.226,0.96 2.008,0.96 0.734,0 1.489,-0.297 2.125,-0.836 C 3.533,1.98 3.845,1.334 3.885,0.318 L 3.896,0.054 5.55,0.212 5.529,0.458 c -0.128,1.53 -0.63,2.536 -1.733,3.47 -0.899,0.76 -2.004,1.179 -3.111,1.179 -1.276,0 -2.442,-0.547 -3.284,-1.542 -1.635,-1.933 -1.353,-4.674 0.658,-6.376 0.407,-0.344 0.831,-0.62 1.26,-0.816 0.533,-0.246 1.114,-0.382 1.635,-0.382 l 0.001,0 c 0.735,0 1.347,0.262 1.766,0.758 L 4.258,-1.438 1.068,1.263 0,0 z" xmlns:inkscape="http://www.inkscape.org/namespaces/inkscape" inkscape:connector-curvature="0" id="{d4}66" style="fill:#393536;fill-opacity:1;fill-rule:nonzero;stroke:none"><title>path24</title><desc></desc></path></g><g transform="translate(203.5977,131.3809)" id="{d4}36"><title>g27</title><desc></desc><path d="m 0,0 -3.669,2.033 1.565,2.822 -1.448,0.803 -4.106,-7.414 1.448,-0.801 1.73,3.123 3.668,-2.033 L -2.543,-4.59 -1.085,-5.396 3.021,2.019 1.565,2.824 0,0 z" xmlns:inkscape="http://www.inkscape.org/namespaces/inkscape" inkscape:connector-curvature="0" id="{d4}67" style="fill:#393536;fill-opacity:1;fill-rule:nonzero;stroke:none"><title>path25</title><desc></desc></path></g><g transform="translate(213.8262,124.5869)" id="{d4}37"><title>g28</title><desc></desc><path d="m 0,0 c -0.071,-0.225 -0.227,-0.409 -0.435,-0.518 -0.288,-0.149 -0.585,-0.106 -0.996,0.025 l -3.132,1 0.55,1.732 3.023,-0.963 C -0.645,1.167 -0.196,0.965 -0.021,0.63 0.07,0.449 0.078,0.244 0,0 M 0.02,4.444 C 0.32,4.349 0.526,4.22 0.635,4.06 0.747,3.894 0.76,3.681 0.673,3.41 0.503,2.879 0.088,2.704 -0.479,2.884 l -3.02,0.963 0.496,1.56 3.023,-0.963 z m 0.502,1.577 -4.597,1.466 -2.576,-8.074 4.598,-1.467 c 0.491,-0.156 0.87,-0.267 1.28,-0.267 0.348,0 0.682,0.082 1.047,0.255 0.616,0.28 1.051,0.771 1.258,1.422 0.233,0.733 0.124,1.508 -0.311,2.258 0.541,0.311 0.85,0.702 1.042,1.3 C 2.488,3.623 2.43,4.297 2.091,4.862 1.771,5.395 1.229,5.796 0.522,6.021" xmlns:inkscape="http://www.inkscape.org/namespaces/inkscape" inkscape:connector-curvature="0" id="{d4}68" style="fill:#393536;fill-opacity:1;fill-rule:nonzero;stroke:none"><title>path26</title><desc></desc></path></g><g transform="translate(225.5313,126.3574)" id="{d4}38"><title>g29</title><desc></desc><path d="M 0,0 C 0.494,-0.563 0.722,-1.291 0.641,-2.049 0.479,-3.58 -0.928,-4.717 -2.52,-4.538 c -1.59,0.168 -2.757,1.524 -2.599,3.022 0.156,1.483 1.315,2.518 2.818,2.518 0.115,0 0.235,-0.007 0.354,-0.02 C -1.176,0.901 -0.484,0.553 0,0 m -1.76,2.649 c -2.532,0.255 -4.729,-1.489 -4.98,-3.855 -0.129,-1.225 0.214,-2.413 0.965,-3.346 0.753,-0.936 1.842,-1.522 3.069,-1.652 0.163,-0.017 0.326,-0.025 0.487,-0.025 2.326,0 4.262,1.695 4.5,3.942 C 2.544,0.214 0.77,2.382 -1.76,2.649" xmlns:inkscape="http://www.inkscape.org/namespaces/inkscape" inkscape:connector-curvature="0" id="{d4}69" style="fill:#393536;fill-opacity:1;fill-rule:nonzero;stroke:none"><title>path27</title><desc></desc></path></g><g transform="translate(237.3828,126.4482)" id="{d4}39"><title>g30</title><desc></desc><path d="m 0,0 c 0.062,-0.64 -0.279,-1 -1.01,-1.07 l -3.296,-0.316 -0.176,1.844 3.294,0.314 c 0.076,0.008 0.15,0.012 0.221,0.012 C -0.167,0.784 -0.032,0.337 0,0 M 1.653,0.093 C 1.504,1.656 0.315,2.578 -1.344,2.422 l -4.953,-0.477 0.808,-8.436 1.657,0.159 -0.314,3.29 2.553,0.244 1.911,-3.137 1.867,0.18 -2.024,3.26 c 1.065,0.477 1.606,1.406 1.492,2.588" xmlns:inkscape="http://www.inkscape.org/namespaces/inkscape" inkscape:connector-curvature="0" id="{d4}70" style="fill:#393536;fill-opacity:1;fill-rule:nonzero;stroke:none"><title>path28</title><desc></desc></path></g><g transform="translate(253.9365,130.1465)" id="{d4}40"><title>g31</title><desc></desc><path d="m 0,0 -3.908,-1.475 0.584,-1.548 2.371,0.894 0.227,-0.605 c 0.187,-0.494 -0.471,-1.115 -0.844,-1.374 -0.226,-0.157 -0.484,-0.29 -0.768,-0.396 -0.423,-0.16 -0.851,-0.24 -1.274,-0.24 -1.207,-0.001 -2.14,0.637 -2.559,1.748 -0.642,1.698 0.472,3.134 1.9,3.673 0.948,0.356 1.632,0.316 2.557,-0.15 l 0.235,-0.118 0.666,1.522 -0.226,0.101 c -1.419,0.643 -2.517,0.683 -3.875,0.171 -2.478,-0.935 -3.676,-3.414 -2.789,-5.765 0.663,-1.757 2.247,-2.849 4.135,-2.849 0.592,0 1.184,0.109 1.758,0.326 0.505,0.191 0.952,0.429 1.325,0.703 0.909,0.666 1.801,1.893 1.325,3.157 L 0,0 z" xmlns:inkscape="http://www.inkscape.org/namespaces/inkscape" inkscape:connector-curvature="0" id="{d4}71" style="fill:#393536;fill-opacity:1;fill-rule:nonzero;stroke:none"><title>path29</title><desc></desc></path></g><g transform="translate(263.3057,132.6904)" id="{d4}41"><title>g32</title><desc></desc><path d="m 0,0 c -0.18,-0.731 -0.636,-1.36 -1.286,-1.771 -0.489,-0.31 -1.052,-0.473 -1.625,-0.473 -0.962,0 -1.796,0.448 -2.291,1.229 -0.424,0.669 -0.561,1.435 -0.383,2.156 0.175,0.713 0.645,1.343 1.321,1.772 0.499,0.316 1.064,0.483 1.631,0.483 0.945,0 1.777,-0.458 2.281,-1.254 C 0.056,1.498 0.181,0.737 0,0 m -2.692,5.054 c -0.866,0 -1.716,-0.248 -2.459,-0.719 -2.118,-1.341 -2.797,-4.082 -1.514,-6.112 0.847,-1.338 2.274,-2.138 3.818,-2.138 0.857,0 1.702,0.25 2.448,0.722 2.119,1.339 2.783,4.106 1.479,6.166 -0.825,1.303 -2.235,2.081 -3.772,2.081" xmlns:inkscape="http://www.inkscape.org/namespaces/inkscape" inkscape:connector-curvature="0" id="{d4}72" style="fill:#393536;fill-opacity:1;fill-rule:nonzero;stroke:none"><title>path30</title><desc></desc></path></g><g transform="translate(273.0029,140.9355)" id="{d4}42"><title>g33</title><desc></desc><path d="m 0,0 c -0.021,-0.753 -0.335,-1.465 -0.884,-2.004 -0.561,-0.554 -1.326,-0.871 -2.097,-0.871 -0.72,0 -1.391,0.279 -1.888,0.784 -0.556,0.567 -0.851,1.286 -0.83,2.028 0.02,0.736 0.345,1.45 0.917,2.01 0.569,0.56 1.328,0.88 2.083,0.88 0.716,0 1.391,-0.287 1.903,-0.807 C -0.262,1.476 0.021,0.759 0,0 m -2.748,4.475 c -1.196,0 -2.333,-0.47 -3.2,-1.324 -0.848,-0.834 -1.344,-1.939 -1.397,-3.113 -0.053,-1.206 0.374,-2.335 1.205,-3.181 0.877,-0.892 2.031,-1.383 3.247,-1.384 l 10e-4,0 c 1.182,0 2.31,0.469 3.176,1.321 0.852,0.837 1.343,1.953 1.382,3.142 0.04,1.21 -0.399,2.346 -1.236,3.198 -0.85,0.864 -1.979,1.341 -3.178,1.341" xmlns:inkscape="http://www.inkscape.org/namespaces/inkscape" inkscape:connector-curvature="0" id="{d4}73" style="fill:#393536;fill-opacity:1;fill-rule:nonzero;stroke:none"><title>path31</title><desc></desc></path></g><g transform="translate(274.5176,149.8125)" id="{d4}43"><title>g34</title><desc></desc><path d="M 0,0 1.374,2.047 C 1.933,2.878 2.68,3.052 3.208,3.052 3.76,3.052 4.328,2.866 4.852,2.515 5.417,2.135 5.814,1.596 5.973,0.997 6.138,0.372 6.028,-0.251 5.656,-0.804 L 4.271,-2.868 0,0 z M 5.716,3.954 C 4.977,4.449 4.133,4.711 3.273,4.711 1.93,4.711 0.731,4.075 -0.013,2.967 l -2.286,-3.403 7.035,-4.725 2.304,3.428 c 0.65,0.97 0.823,1.837 0.576,2.896 -0.252,1.115 -0.962,2.158 -1.9,2.791" xmlns:inkscape="http://www.inkscape.org/namespaces/inkscape" inkscape:connector-curvature="0" id="{d4}74" style="fill:#393536;fill-opacity:1;fill-rule:nonzero;stroke:none"><title>path32</title><desc></desc></path></g><g transform="translate(286.0342,162.5537)" id="{d4}44"><title>g35</title><desc></desc><path d="M 0,0 C -0.838,0.362 -1.775,0.261 -2.517,-0.271 -3.333,-0.865 -3.652,-1.609 -3.99,-2.396 l -0.47,-1.089 c -0.3,-0.699 -0.615,-0.93 -1.049,-0.744 -0.777,0.335 -0.351,1.796 -0.122,2.331 0.368,0.855 0.814,1.268 1.673,1.871 l 0.193,0.135 -0.847,1.373 -0.21,-0.119 c -1.076,-0.614 -1.912,-1.559 -2.417,-2.732 -0.198,-0.462 -0.325,-0.94 -0.377,-1.424 -0.101,-1.095 0.229,-2.452 1.456,-2.978 1.23,-0.533 2.506,0.094 3.139,1.501 l 0.493,1.09 c 0.494,1.092 0.643,1.37 0.983,1.599 0.276,0.187 0.543,0.225 0.808,0.111 1.073,-0.463 0.245,-2.425 0.209,-2.507 -0.556,-1.289 -1.165,-1.928 -2.329,-2.443 l -0.217,-0.096 0.568,-1.512 0.235,0.091 c 1.546,0.597 2.539,1.57 3.218,3.151 0.378,0.878 0.564,1.824 0.51,2.596 C 1.383,-1.135 0.879,-0.377 0,0" xmlns:inkscape="http://www.inkscape.org/namespaces/inkscape" inkscape:connector-curvature="0" id="{d4}75" style="fill:#393536;fill-opacity:1;fill-rule:nonzero;stroke:none"><title>path33</title><desc></desc></path></g></g></g></g></svg>