<?xml version="1.0" encoding="utf-8"?>
<!-- Generator: Adobe Illustrator 18.0.0, SVG Export Plug-In . SVG Version: 6.00 Build 0)  -->
<!DOCTYPE svg PUBLIC "-//W3C//DTD SVG 1.1//EN" "http://www.w3.org/Graphics/SVG/1.1/DTD/svg11.dtd">
<svg version="1.1" id="Layer_1" xmlns="http://www.w3.org/2000/svg" xmlns:xlink="http://www.w3.org/1999/xlink" x="0px" y="0px"
	 viewBox="0 0 150 151" enable-background="new 0 0 150 151" xml:space="preserve">
<g>
	<polygon fill="#ffffff" points="80.5,109.3 77.6,99.1 75.8,99.1 73,109.3 69.7,99.1 67.6,99.1 72.2,113.2 74,113.2 76.7,103.2
		79.5,113.2 81.3,113.2 85.9,99.1 83.8,99.1 	"/>
	<path fill="#ffffff" d="M78.6,81.7l0.8,0.9h3l-2.1-2.3c0.7-0.8,1.3-1.6,1.8-2.4l0.1-0.1l-1.8-1.2l-0.2,0.2
		c-0.4,0.6-0.9,1.2-1.4,1.8l-4-4.3c-0.3-0.3-0.7-0.8-0.7-1.3c0-0.5,0.6-0.8,1.5-0.8c1,0,2.2,0.6,2.8,0.9l0.1,0.1l1-1.9l-0.1-0.1
		c-0.8-0.5-2.3-1-3.9-1c-2.3,0-3.8,1.1-3.8,2.9c0,0.9,0.4,1.8,0.9,2.3c-1.4,0.3-3.4,1.4-3.4,3.6c0,1.9,1.9,4,5.3,4
		C76.3,82.8,77.2,82.5,78.6,81.7 M71.5,78.9c0-1.2,1.5-1.6,2.5-1.8c0.1,0,0.2,0,0.2-0.1l2.8,3c-0.9,0.5-1.5,0.6-2.6,0.6
		C73.6,80.5,71.5,80.1,71.5,78.9"/>
	<polygon fill="#ffffff" points="73,53.6 75.7,43.6 78.5,53.6 80.3,53.6 84.9,39.5 82.8,39.5 79.5,49.7 76.6,39.5 74.8,39.5
		72,49.7 68.7,39.5 66.6,39.5 71.2,53.6 	"/>
	<path fill="#ffffff" d="M74.7,2.4C34.3,2.4,1.4,35.3,1.4,75.7c0,40.4,32.9,73.3,73.3,73.3c40.4,0,73.3-32.9,73.3-73.3
		C148,35.3,115.1,2.4,74.7,2.4 M74.7,146.8c-39.2,0-71.1-31.9-71.1-71.1c0-39.2,31.9-71.1,71.1-71.1c39.2,0,71.1,31.9,71.1,71.1
		C145.8,114.9,113.9,146.8,74.7,146.8"/>
	<path fill="#ffffff" d="M121,75.5c0-25.3-20.6-46-46-46s-46,20.6-46,46c0,25.3,20.6,46,46,46S121,100.9,121,75.5 M75,64.2
		l34.4,12.1L77,88.2L42.5,76.3L75,64.2z M111.3,100L80.3,89.3l32.8-12l0-2.1L78.3,63l33-12.2c4.8,7,7.6,15.5,7.6,24.7
		C118.8,84.6,116.1,93,111.3,100 M75.1,31.8c14.2,0,26.8,6.8,34.8,17.2L75,61.9L39.9,49.6C47.8,38.8,60.7,31.8,75.1,31.8 M38.6,51.5
		l33.2,11.6l-33,12.2l0,2.1l34.9,12L40,101.7c-5.4-7.3-8.7-16.3-8.7-26.1C31.3,66.7,34,58.4,38.6,51.5 M75.1,119.3
		c-13.5,0-25.6-6.2-33.7-15.8l35.6-13l33,11.4C102,112.5,89.3,119.3,75.1,119.3"/>
	<polygon fill="#ffffff" points="11.2,82.3 22.5,78.5 22.5,76.8 15.4,74.9 22.5,73 22.5,71.3 11.2,67.6 11.2,69.7 18.6,72
		11.2,74.1 11.2,75.9 18.6,77.8 11.2,80.3 	"/>

		<rect x="12.5" y="61.8" transform="matrix(0.9776 0.2105 -0.2105 0.9776 13.6118 -2.4108)" fill="#ffffff" width="11.3" height="2"/>
	<polygon fill="#ffffff" points="28.2,50.6 26.3,49.9 23.9,56 15.3,52.6 14.5,54.4 25,58.6 	"/>
	<path fill="#ffffff" d="M22.9,44c0.8,0.6,1.8,0.7,2.7,0.4c0.8-0.3,1.3-0.8,2.1-1.9l1.3-1.8c0.4-0.5,1-1,1.6-1
		c0.2,0,0.5,0.1,0.7,0.2c1.4,1-0.5,3.6-0.5,3.7c-1,1.5-2,2-3.9,2.4L26.6,46l0.3,2l0.4-0.1c2.4-0.4,3.8-1.3,5.2-3.2
		c1.5-2.2,2.2-5,0.1-6.5c-1-0.7-2.6-0.8-3.7-0.1c-0.7,0.5-1.3,1.2-1.6,1.6l-0.9,1.3c-0.8,1.1-1,1.2-1.4,1.4
		c-0.3,0.1-0.6,0.1-0.9-0.1c-0.4-0.3-0.5-0.8-0.4-1.5c0.1-0.7,0.5-1.3,0.8-1.8c0.8-1.1,1.6-1.7,3-2.1l0.3-0.1L27.2,35l-0.4,0.1
		c-1.8,0.5-3,1.4-4,2.9C21.5,39.9,20.9,42.6,22.9,44"/>
	<path fill="#ffffff" d="M38.5,35.7c1.4,0,2.7-0.5,3.8-1.3c1.3-1,2.1-2.4,2.3-4c0.2-1.6-0.2-3.1-1.2-4.4c-1.1-1.4-2.8-2.2-4.5-2.2
		c-1.4,0-2.7,0.5-3.8,1.4c-1.3,1-2.1,2.4-2.3,4c-0.2,1.6,0.2,3.2,1.2,4.4C35.1,34.9,36.7,35.7,38.5,35.7 M34.7,29.3
		c0.2-1,0.7-2,1.6-2.7c0.7-0.6,1.6-0.9,2.5-0.9c1.2,0,2.2,0.5,3,1.5c1.4,1.7,1.1,4.1-0.7,5.6c-0.7,0.6-1.7,0.9-2.6,0.9
		c-1.2,0-2.2-0.5-3-1.4C34.9,31.4,34.6,30.4,34.7,29.3"/>
	<polygon fill="#ffffff" points="52.9,27.4 50,20.1 58.7,25.1 60.4,24.5 56.3,14 54.4,14.7 57.3,22.1 48.6,17 46.9,17.7 51,28.1
		"/>
	<path fill="#ffffff" d="M72.2,22.1c0.8,0.5,1.8,0.8,2.9,0.8l0.2,0c1.3,0,2.1-0.3,3.1-0.9l0.7,0.7l2.8,0.1l-1.9-2.1
		c0.5-0.5,1.1-1.4,1.3-1.8l0.1-0.3l-1.6-1.1L79.6,18c-0.1,0.2-0.7,0.9-1,1.3l-3.4-3.7c-0.2-0.2-0.3-0.4-0.3-0.6
		c0-0.3,0.6-0.4,1.2-0.4h0c0.8,0,1.7,0.4,2.1,0.6l0.4,0.3l0.9-1.8l-0.2-0.2c-0.6-0.5-1.9-0.8-3.1-0.8l-0.1,0c-1.9,0-3.1,0.9-3.1,2.3
		c0,0.6,0.3,1.2,0.5,1.6c-1.7,0.5-2.6,1.6-2.7,2.9C70.7,20.5,71.2,21.5,72.2,22.1 M75.2,20.9l-0.1,0c-0.8,0-2.5-0.4-2.4-1.4
		c0-0.4,0.4-0.9,2.1-1.4l2.3,2.4C76.5,20.8,75.9,20.9,75.2,20.9"/>
	<polygon fill="#ffffff" points="98.9,20.8 97.8,28 99.4,28.7 107.3,19.9 105.4,19.1 100.2,24.9 101.3,17.3 99.7,16.6 95,22.5
		95.7,14.8 93.8,14 92.8,25.8 94.3,26.5 	"/>

		<rect x="103.3" y="27.2" transform="matrix(-0.5895 0.8078 -0.8078 -0.5895 195.8651 -43.0909)" fill="#ffffff" width="11.3" height="2"/>
	<polygon fill="#ffffff" points="115.9,42.3 117.3,40.9 112.7,36.2 119.3,29.7 117.9,28.3 109.9,36.1 	"/>
	<polygon fill="#ffffff" points="122,52.1 123.7,51 120.3,45.4 128.1,40.5 127.1,38.8 117.5,44.7 	"/>
	<polygon fill="#ffffff" points="124.6,59.2 129.4,57.6 136.8,60.3 136,57.8 131,56 133.9,51.6 133.1,49.1 128.8,55.7 124,57.3 	"/>
	<path fill="#ffffff" d="M136.4,64.5c-0.7,0.1-1.2,0.6-1.1,1.3l0,0c-0.3,0-0.6-0.3-0.8-0.5c-0.2-0.2-0.4-0.3-0.8-0.3
		c-0.4,0.1-0.7,0.4-0.6,0.8l0.4,0.6c0.5,0.4,1.2,1,2.3,1c0.1,0,0.3,0,0.4,0c0.4-0.1,0.9-0.3,1.2-0.6c0.4-0.4,0.5-0.8,0.5-1.3
		C137.7,65,137.1,64.4,136.4,64.5"/>
	<path fill="#ffffff" d="M135.1,72.3l-0.1,0c-0.9,0-1.8,0.4-2.3,1.2c-0.5,0.7-0.7,1.4-0.7,2.8l-0.1,2.2c0,0.7-0.4,2-1.5,2h0
		c-0.6,0-1-0.4-1.3-1.2c-0.3-0.9-0.3-1.9-0.3-2.2c0.1-1.8,0.5-2.8,1.9-4.1l0.3-0.3l-1.3-1.5l-0.3,0.3c-1.8,1.6-2.5,3.1-2.6,5.5
		c0,1.3,0.2,2.5,0.6,3.4c0.6,1.3,1.6,2,2.9,2l0.1,0h0c1.3,0,2.5-0.8,3-1.9c0.3-0.6,0.4-1.3,0.5-2.3l0.1-1.6c0.1-1.3,0.1-1.6,0.4-1.9
		c0.1-0.2,0.4-0.4,0.8-0.4h0c0.3,0,0.5,0.1,0.7,0.3c0.5,0.6,0.7,1.7,0.7,2.6c0,1.3-0.4,2.3-1.3,3.4l-0.2,0.3l1.5,1.3l0.2-0.3
		c1.2-1.4,1.7-2.8,1.8-4.6C138.5,74.9,137.5,72.4,135.1,72.3"/>
	<polygon fill="#ffffff" points="26.7,98.9 21.6,101.1 25,94.8 24.4,93.5 16.6,96.8 17.3,98.3 22.4,96.1 19,102.4 19.6,103.8
		27.4,100.4 	"/>
	<polygon fill="#ffffff" points="25.9,107.5 27.5,109.7 28.8,108.8 27.3,106.6 28.6,105.7 31.7,110.1 33,109.2 29.1,103.4
		22.1,108.1 26.2,114.1 27.5,113.2 24.4,108.6 	"/>

		<rect x="27.9" y="113.6" transform="matrix(0.7442 -0.6679 0.6679 0.7442 -68.2093 50.7103)" fill="#ffffff" width="8.5" height="1.6"/>
	<path fill="#ffffff" d="M37.3,120.9l1.9,1.6l-0.4,0.5c-0.1,0.1-0.3,0.2-0.6,0.2c-0.5,0-0.9-0.2-1.1-0.3c-0.2-0.1-0.5-0.3-0.7-0.5
		c-0.6-0.5-1.1-1.2-1.2-2c-0.1-0.8,0.1-1.5,0.6-2.1c0.5-0.6,1.2-1,2-1c0.7,0,1.5,0.3,2.1,0.8c0.8,0.6,1.1,1.3,1.1,2.3l0,0.3l1.7-0.2
		l0-0.2c-0.1-1.5-0.6-2.5-1.7-3.5c-0.9-0.8-2-1.2-3.1-1.2c-1.3,0-2.4,0.5-3.3,1.5c-1.6,1.9-1.4,4.7,0.7,6.4c0.4,0.3,0.8,0.6,1.3,0.8
		c0.5,0.2,1.1,0.4,1.6,0.4h0c0.7,0,1.3-0.3,1.8-0.8l1.5-1.8l-3.2-2.7L37.3,120.9z"/>
	<polygon fill="#ffffff" points="49.6,126.6 45.9,124.6 47.5,121.8 46,121 41.9,128.4 43.4,129.2 45.1,126.1 48.8,128.1 47.1,131.2
		48.5,132 52.6,124.6 51.2,123.8 	"/>
	<path fill="#ffffff" d="M60.3,127.4l-4.6-1.5l-2.6,8.1l4.6,1.5c0.5,0.2,0.9,0.3,1.3,0.3c0.3,0,0.7-0.1,1-0.3
		c0.6-0.3,1.1-0.8,1.3-1.4c0.2-0.7,0.1-1.5-0.3-2.3c0.5-0.3,0.9-0.7,1-1.3c0.2-0.7,0.2-1.4-0.2-1.9C61.6,128,61.1,127.6,60.3,127.4
		 M59.8,129c0.3,0.1,0.5,0.2,0.6,0.4c0.1,0.2,0.1,0.4,0,0.6c-0.2,0.5-0.6,0.7-1.2,0.5l-3-1l0.5-1.6L59.8,129z M59.8,133.4
		c-0.1,0.2-0.2,0.4-0.4,0.5c-0.3,0.1-0.6,0.1-1,0l-3.1-1l0.5-1.7l3,1c0.3,0.1,0.8,0.3,1,0.6C59.9,133,59.9,133.2,59.8,133.4"/>
	<path fill="#ffffff" d="M69.8,129c-2.5-0.3-4.7,1.5-5,3.9c-0.1,1.2,0.2,2.4,1,3.3c0.8,0.9,1.8,1.5,3.1,1.7c0.2,0,0.3,0,0.5,0
		c2.3,0,4.3-1.7,4.5-3.9C74.1,131.4,72.3,129.3,69.8,129 M71.5,131.6c0.5,0.6,0.7,1.3,0.6,2c-0.2,1.5-1.6,2.7-3.2,2.5
		c-1.6-0.2-2.8-1.5-2.6-3c0.2-1.5,1.3-2.5,2.8-2.5c0.1,0,0.2,0,0.4,0C70.4,130.7,71,131.1,71.5,131.6"/>
	<path fill="#ffffff" d="M85,131.5c-0.1-1.6-1.3-2.5-3-2.3l-5,0.5l0.8,8.4l1.7-0.2l-0.3-3.3l2.6-0.2l1.9,3.1l1.9-0.2l-2-3.3
		C84.6,133.6,85.1,132.6,85,131.5 M83.4,131.6c0.1,0.6-0.3,1-1,1.1l-3.3,0.3l-0.2-1.8l3.3-0.3c0.1,0,0.1,0,0.2,0
		C83.2,130.8,83.4,131.2,83.4,131.6"/>
	<path fill="#ffffff" d="M99.9,127.9l-3.9,1.5l0.6,1.5L99,130l0.2,0.6c0.2,0.5-0.5,1.1-0.8,1.4c-0.2,0.2-0.5,0.3-0.8,0.4
		c-0.4,0.2-0.9,0.2-1.3,0.2c-1.2,0-2.1-0.6-2.6-1.7c-0.6-1.7,0.5-3.1,1.9-3.7c0.9-0.4,1.6-0.3,2.6,0.1l0.2,0.1l0.7-1.5l-0.2-0.1
		c-1.4-0.6-2.5-0.7-3.9-0.2c-2.5,0.9-3.7,3.4-2.8,5.8c0.7,1.8,2.2,2.8,4.1,2.8c0.6,0,1.2-0.1,1.8-0.3c0.5-0.2,1-0.4,1.3-0.7
		c0.9-0.7,1.8-1.9,1.3-3.2L99.9,127.9z"/>
	<path fill="#ffffff" d="M106.6,120.3c-0.9,0-1.7,0.2-2.5,0.7c-2.1,1.3-2.8,4.1-1.5,6.1c0.8,1.3,2.3,2.1,3.8,2.1
		c0.9,0,1.7-0.2,2.4-0.7c2.1-1.3,2.8-4.1,1.5-6.2C109.6,121,108.2,120.3,106.6,120.3 M109.3,125.3c-0.2,0.7-0.6,1.4-1.3,1.8
		c-0.5,0.3-1.1,0.5-1.6,0.5c-1,0-1.8-0.4-2.3-1.2c-0.4-0.7-0.6-1.4-0.4-2.2c0.2-0.7,0.6-1.3,1.3-1.8c0.5-0.3,1.1-0.5,1.6-0.5
		c0.9,0,1.8,0.5,2.3,1.3C109.4,123.8,109.5,124.6,109.3,125.3"/>
	<path fill="#ffffff" d="M116.3,112.6c-1.2,0-2.3,0.5-3.2,1.3c-0.8,0.8-1.3,1.9-1.4,3.1c-0.1,1.2,0.4,2.3,1.2,3.2
		c0.9,0.9,2,1.4,3.2,1.4h0c1.2,0,2.3-0.5,3.2-1.3c0.9-0.8,1.3-2,1.4-3.1c0-1.2-0.4-2.3-1.2-3.2C118.6,113.1,117.5,112.6,116.3,112.6
		 M119,117.1c0,0.8-0.3,1.5-0.9,2c-0.6,0.6-1.3,0.9-2.1,0.9c-0.7,0-1.4-0.3-1.9-0.8c-0.6-0.6-0.9-1.3-0.8-2c0-0.7,0.3-1.4,0.9-2
		c0.6-0.6,1.3-0.9,2.1-0.9c0.7,0,1.4,0.3,1.9,0.8C118.7,115.6,119,116.3,119,117.1"/>
	<path fill="#ffffff" d="M126.2,104.2c-0.7-0.5-1.6-0.8-2.4-0.8c-1.3,0-2.5,0.6-3.3,1.7l-2.3,3.4l7,4.7l2.3-3.4
		c0.7-1,0.8-1.8,0.6-2.9C127.9,105.9,127.2,104.9,126.2,104.2 M120.5,108.2l1.4-2c0.6-0.8,1.3-1,1.8-1c0.6,0,1.1,0.2,1.6,0.5
		c0.6,0.4,1,0.9,1.1,1.5c0.2,0.6,0.1,1.2-0.3,1.8l-1.4,2.1L120.5,108.2z"/>
	<path fill="#ffffff" d="M132,95.4c-0.8-0.4-1.8-0.3-2.5,0.3c-0.8,0.6-1.1,1.3-1.5,2.1l-0.5,1.1c-0.3,0.7-0.6,0.9-1,0.7
		c-0.8-0.3-0.4-1.8-0.1-2.3c0.4-0.9,0.8-1.3,1.7-1.9l0.2-0.1l-0.8-1.4l-0.2,0.1c-1.1,0.6-1.9,1.6-2.4,2.7c-0.2,0.5-0.3,0.9-0.4,1.4
		c-0.1,1.1,0.2,2.5,1.5,3c1.2,0.5,2.5-0.1,3.1-1.5l0.5-1.1c0.5-1.1,0.6-1.4,1-1.6c0.3-0.2,0.5-0.2,0.8-0.1c1.1,0.5,0.2,2.4,0.2,2.5
		c-0.6,1.3-1.2,1.9-2.3,2.4L129,102l0.6,1.5l0.2-0.1c1.5-0.6,2.5-1.6,3.2-3.2c0.4-0.9,0.6-1.8,0.5-2.6
		C133.4,96.6,132.9,95.8,132,95.4"/>
</g>
<rect x="-312" y="-298" fill="none" width="612" height="792"/>
</svg>
