<?xml version="1.0" encoding="utf-8"?>
<!-- Generator: Adobe Illustrator 18.1.0, SVG Export Plug-In . SVG Version: 6.00 Build 0)  -->
<!DOCTYPE svg PUBLIC "-//W3C//DTD SVG 1.1//EN" "http://www.w3.org/Graphics/SVG/1.1/DTD/svg11.dtd">
<svg version="1.1" id="magnifying_glass" xmlns="http://www.w3.org/2000/svg" xmlns:xlink="http://www.w3.org/1999/xlink" x="0px"
	 y="0px" viewBox="-257 349 96 96" enable-background="new -257 349 96 96" xml:space="preserve">
<path id="_x3C_Path_x3E_" fill="#FFFFFF" d="M-166.4,434l-22.5-22.5c4.9-6.2,7.9-14,7.9-22.5c0-19.9-16.1-36-36-36s-36,16.1-36,36
	s16.1,36,36,36c8.5,0,16.3-3,22.5-7.9l22.5,22.5c0.8,0.8,1.8,1.2,2.8,1.2c1,0,2.1-0.4,2.8-1.2C-164.8,438.1-164.8,435.5-166.4,434z
	 M-217,417c-15.5,0-28-12.5-28-28s12.5-28,28-28s28,12.5,28,28S-201.5,417-217,417z"/>
</svg>
